<svg width="683" height="854" viewBox="0 0 683 854" fill="none" xmlns="http://www.w3.org/2000/svg">
<path d="M0 426.667C0 437.983 4.49521 448.835 12.4968 456.837C20.4983 464.838 31.3508 469.333 42.6667 469.333H366.507L268.373 567.04C264.374 571.006 261.2 575.725 259.034 580.925C256.868 586.124 255.753 591.701 255.753 597.333C255.753 602.966 256.868 608.543 259.034 613.742C261.2 618.941 264.374 623.66 268.373 627.627C272.34 631.626 277.059 634.8 282.258 636.966C287.457 639.132 293.034 640.247 298.667 640.247C304.299 640.247 309.876 639.132 315.075 636.966C320.275 634.8 324.994 631.626 328.96 627.627L499.627 456.96C503.511 452.902 506.556 448.117 508.587 442.88C512.854 432.492 512.854 420.841 508.587 410.453C506.556 405.216 503.511 400.431 499.627 396.373L328.96 225.707C324.982 221.728 320.259 218.573 315.061 216.42C309.864 214.267 304.293 213.159 298.667 213.159C287.304 213.159 276.408 217.672 268.373 225.707C264.395 229.685 261.239 234.408 259.086 239.605C256.934 244.803 255.825 250.374 255.825 256C255.825 267.362 260.339 278.259 268.373 286.293L366.507 384H42.6667C31.3508 384 20.4983 388.495 12.4968 396.497C4.49521 404.498 0 415.351 0 426.667V426.667ZM554.667 0H128C94.0523 0 61.495 13.4857 37.4903 37.4903C13.4857 61.495 0 94.0523 0 128V256C0.00173221 267.315 4.49772 278.166 12.4991 286.166C20.5004 294.166 31.3519 298.66 42.6667 298.66C53.9814 298.66 64.8329 294.166 72.8342 286.166C80.8356 278.166 85.3316 267.315 85.3333 256V128C85.3333 116.684 89.8285 105.832 97.8301 97.8301C105.832 89.8285 116.684 85.3333 128 85.3333H554.667C565.983 85.3333 576.835 89.8285 584.837 97.8301C592.838 105.832 597.333 116.684 597.333 128V725.333C597.333 736.649 592.838 747.502 584.837 755.503C576.835 763.505 565.983 768 554.667 768H128C116.684 768 105.832 763.505 97.8301 755.503C89.8285 747.502 85.3333 736.649 85.3333 725.333V597.333C85.3316 586.019 80.8356 575.168 72.8342 567.168C64.8329 559.168 53.9814 554.673 42.6667 554.673C31.3519 554.673 20.5004 559.168 12.4991 567.168C4.49772 575.168 0.00173221 586.019 0 597.333V725.333C0 759.281 13.4857 791.838 37.4903 815.843C61.495 839.848 94.0523 853.333 128 853.333H554.667C588.614 853.333 621.172 839.848 645.176 815.843C669.181 791.838 682.667 759.281 682.667 725.333V128C682.667 94.0523 669.181 61.495 645.176 37.4903C621.172 13.4857 588.614 0 554.667 0V0Z" fill="white"/>
</svg>
