<svg width="314" height="654" viewBox="0 0 314 654" fill="none" xmlns="http://www.w3.org/2000/svg">
<path d="M259.459 8.81674C235.246 8.0102 202.688 18.3895 200.778 44.218C196.675 24.4397 168.665 16.54 149.766 21.4045C137.518 27.0713 141.233 42.1411 141.932 52.3944C146.256 54.6172 152.706 62.7652 145.488 56.8196C131.233 46.9958 102.811 51.5886 103.809 71.2312C101.915 80.6539 104.497 89.3806 110.199 97.1054C95.3689 78.7689 58.164 88.667 57.2328 111.995C56.9499 122.584 53.8079 134.524 64.6978 141.592C72.7171 152.88 76.06 171.418 65.0507 181.568C58.727 184.135 44.5271 178.679 48.2263 171.965C56.2358 170.797 74.5569 167.206 68.569 156.507C59.892 139.537 33.2728 146.431 25.8817 160.902C19.9704 169.533 7.99987 183.05 17.0705 192.691C21.2905 193.595 12.382 196.425 15.2734 202.842C19.2447 240.093 -8.54762 277.701 10.0892 314.238C29.9515 355.839 62.3662 391.894 75.8392 436C92.6383 477.821 93.1857 522.283 96.084 566.234C97.8407 592.827 114.276 621.934 145.228 626.93C176.077 630.553 208.571 622.676 235.203 608.268C272.617 587.21 281.181 543.313 277.49 506.095C272.722 443.717 250.716 380.771 271.952 319.133C282.02 278.407 308.127 241.314 310.845 199.111C312.914 163.732 290.749 122.958 249.443 117.166C198.67 109.39 145.333 130.479 114.293 167.812C98.9242 186.8 74.3354 205.104 53.6631 212.712C73.4812 195.171 98.196 180.835 113.476 158.849C133.637 133.202 161.05 110.951 195.584 104.092C194.202 87.4724 198.941 71.3547 201.176 55.0305C204.828 69.8552 213.209 87.9442 210.676 101.571C218.778 107.454 236.782 98.3214 246.183 102.213C255.5 102.551 277.574 122.353 284.704 120.952C293.133 113.065 291.528 90.4261 294.032 80.2713C303.484 64.9032 314.163 47.0694 302.765 28.3546C294.656 14.0953 276.33 7.46156 259.464 8.8202L259.459 8.81674ZM149.521 83.1811C148.248 87.789 139.227 95.5286 145.297 87.392C145.765 87.1111 151.719 79.4183 149.521 83.1811ZM111.843 116.993C111.947 123.243 103.523 131.628 98.9761 123.426C101.44 121.304 110.222 119.29 111.843 116.993Z" fill="#FCE2B7"/>
<path d="M248.897 10.8196C237.147 10.62 225.118 13.2684 216.519 18.5786C197.618 30.06 198.453 65.0123 210.683 80.3209C213.741 84.1481 218.186 87.7211 223.745 87.7211C226.525 87.7211 235.98 86.1923 237.926 84.6615C238.76 83.3857 240.15 80.5781 239.316 78.537C236.536 71.9032 231.807 69.6049 226.248 65.0123C223.19 62.4608 220.413 59.9094 217.355 57.3579C215.874 56.1926 212.466 51.6478 210.797 53.0225C215.25 44.1356 234.755 39.1082 243.202 37.968C262.66 35.4165 278.51 41.541 287.96 55.574C288.238 56.0843 288.791 55.3208 288.791 55.0657C293.516 41.543 287.404 23.4227 274.062 16.5338C267.009 12.85 258.037 10.9732 248.899 10.818L248.897 10.8196ZM154.252 25.9788C152.306 25.9788 152.032 30.8234 152.032 31.844C150.364 42.3049 151.476 53.7874 158.981 62.2062C163.428 67.3091 170.657 70.3718 165.653 77.2607C160.928 84.1496 152.866 87.9758 145.083 91.5478C143.693 91.8029 145.08 98.6939 145.636 98.6939C160.091 93.591 172.045 88.2299 172.879 72.6666C173.157 66.288 172.321 59.6583 169.263 53.79C168.357 51.9599 167.224 50.1284 166.077 48.2985C174.099 49.0779 182.238 52.5219 182.608 60.1686C182.608 61.4443 183.163 69.0966 185.664 68.3312C188.166 67.5658 187.608 58.6347 187.608 57.1038C187.33 36.9474 176.767 25.9788 154.252 25.9788V25.9788ZM122.77 57.1344C118.608 56.9002 114.68 58.6344 111.727 62.4616C98.3846 80.832 111.448 105.071 116.173 123.696C116.729 125.482 117.286 121.914 117.286 121.404C117.008 114.26 115.62 107.368 114.23 100.479C112.84 93.8453 109.501 86.192 115.06 81.0891C118.674 77.7722 124.235 78.0294 128.405 80.5808C131.185 82.3668 133.128 84.9152 134.518 87.7218C135.63 90.0181 135.633 93.5901 137.857 95.3761C140.081 97.4173 140.913 87.9769 140.913 87.7218C141.469 77.7711 140.077 65.5242 130.349 59.6559C127.847 58.125 125.267 57.2749 122.77 57.1343L122.77 57.1344ZM96.0753 84.7615C71.0523 84.8876 72.3234 116.729 69.1963 134.67C69.1963 134.925 68.9216 138.752 69.7555 138.752C74.4809 137.986 76.9803 126.762 78.6481 122.935C82.9327 113.594 90.6021 110.455 101.097 111.603C101.591 112.517 102.298 112.903 103.665 111.961C105.889 110.175 105.333 102.521 105.055 100.48V98.4418C105.055 96.4006 105.053 85.6815 101.439 85.1712C99.5282 84.8842 97.7436 84.7542 96.0753 84.7626V84.7615ZM225.613 108.975C188.532 108.839 150.012 126.169 122.571 146.405C102.002 161.714 88.9343 179.829 74.4801 199.985C62.5276 216.57 48.6316 240.043 25.283 243.105C25.005 243.87 25.2774 250.759 26.3904 250.759C58.6345 251.524 76.7023 220.91 98.3836 204.325C115.34 191.313 130.072 177.788 149.529 168.092C165.373 160.183 182.885 154.573 200.675 152.021C217.353 149.725 234.865 149.721 250.987 154.313C259.048 156.61 266.277 160.185 272.67 165.033C276.006 167.584 278.783 170.388 281.563 173.449C282.953 175.235 284.343 177.024 285.733 179.065C285.126 178.323 288.762 185.746 290.374 187.726C290.332 188.189 290.288 188.668 290.179 189.017C289.067 191.313 288.511 193.862 287.399 196.158C286.009 199.985 284.345 203.559 282.399 207.131C277.952 216.827 272.669 226.522 268.778 236.473C261.829 255.354 260.995 275.507 254.88 294.388C248.208 315.055 241.26 334.448 239.314 356.391C237.369 379.099 238.759 402.059 240.704 424.767C242.372 445.944 243.202 466.866 248.761 487.277C251.263 496.207 254.322 504.883 256.546 513.812C257.102 515.598 258.494 525.805 258.772 522.488C258.216 527.846 254.603 533.972 251.823 538.564C233.755 567.396 198.176 585.508 162.874 590.101C137.579 593.418 109.226 588.059 107.281 561.014C104.779 528.356 112.562 491.107 107.281 456.918C101.443 419.667 79.761 380.883 49.1859 355.623C48.074 354.603 47.7939 364.299 48.3498 365.575C59.4684 389.048 69.4774 413.032 81.1525 435.995C90.6034 454.62 99.4949 471.46 98.661 492.127C97.5492 523.509 93.9378 556.423 99.4971 587.806C101.721 600.053 105.333 613.833 115.062 623.018C125.903 633.224 141.748 634.753 156.479 633.732C194.004 630.926 233.198 612.045 253.489 582.703C279.34 545.452 267.665 500.036 256.269 460.234C249.876 438.547 249.594 414.818 248.76 392.366C247.926 367.872 255.992 347.715 262.941 324.497C269.334 302.3 270.724 280.099 281.009 258.923C289.626 240.807 298.521 223.205 300.466 203.304C304.358 165.797 291.845 119.869 245.98 110.939C239.291 109.623 232.477 109.001 225.61 108.975L225.613 108.975ZM55.4089 145.803C52.5853 145.489 50.8561 148.447 48.9103 150.233C46.9646 152.019 44.7375 153.808 42.7917 155.849C40.846 157.89 38.6245 159.927 36.6788 161.968C34.455 164.52 33.0652 167.331 31.1194 169.882C31.3974 170.137 31.3952 172.433 31.6732 172.433C34.1749 171.413 36.3986 171.666 38.6223 170.39C41.402 169.115 43.9059 167.586 46.4076 166.055C48.9093 164.269 51.4099 162.48 53.6336 160.439C56.4132 157.887 56.6923 155.339 57.5262 152.022C57.8042 151.001 58.3579 146.917 56.6901 146.152C56.2384 145.96 55.8122 145.848 55.4089 145.803V145.803Z" fill="#FAD28F"/>
<path d="M259.876 0.00905881C258.243 0.0281946 256.583 0.0967489 254.898 0.2084C232.105 1.73927 207.644 10.157 201.807 32.6092C201.464 33.9242 201.196 35.2469 200.965 36.5708C198.473 29.1992 193.282 22.9387 183.739 18.8304C164.281 10.4106 138.986 14.2378 143.434 37.9662C143.712 40.2625 144.265 37.2018 143.987 36.4363C141.486 13.9836 175.953 22.4013 187.35 29.2902C210.699 43.5783 192.074 70.371 193.186 91.0377C193.186 92.0583 194.302 95.3742 194.858 92.5676C196.782 83.0137 200.462 71.2671 202.079 59.7764C204.397 68.7973 208.723 77.4653 214.316 85.1664C214.038 85.1664 214.594 82.3588 214.316 81.5933C209.362 72.3571 204.076 61.9367 202.85 51.6496C202.93 49.3814 202.887 47.1455 202.687 44.9671C203.123 39.0901 205.211 33.3529 209.864 28.014C220.427 15.7671 238.775 11.942 255.175 10.9214C271.297 10.156 288.253 12.4503 297.982 25.4626C315.772 49.191 290.752 63.9894 282.135 83.8906C281.579 84.9112 282.137 93.5851 282.971 93.0748C304.374 81.8485 311.604 54.2954 307.434 33.6287C302.743 9.94828 284.371 -0.279944 259.877 0.00581773L259.876 0.00905881ZM127.175 46.9428C120.869 47.0074 114.734 48.8923 110.356 53.0224C103.963 58.8907 103.962 68.3311 105.074 75.9854C105.908 78.5369 106.187 74.7077 106.187 73.9423C103.685 57.1028 121.753 50.7272 136.763 55.3198C143.156 57.361 149.548 61.1871 152.328 67.0554C156.22 75.22 144.267 84.1491 139.82 90.2725C139.264 91.038 139.263 96.398 140.096 96.1429C148.713 93.0812 154.275 82.1069 154.831 73.9423C155.387 67.0534 154.276 59.9093 148.995 54.8064C143.679 49.7832 135.284 46.8597 127.175 46.9429V46.9428ZM87.7822 80.3795C79.5032 80.6206 71.1976 84.0222 65.8815 89.763C56.9866 99.4584 54.764 114.767 58.6555 126.759C59.2114 129.565 59.4861 123.696 59.4861 123.186C57.5404 111.449 61.4319 98.9461 73.3844 92.8237C82.0014 88.4862 94.5087 88.4883 102.849 93.5911C108.964 97.4183 114.527 105.584 111.747 112.473C109.245 118.341 103.128 119.362 97.0126 120.127C95.9008 120.382 96.4567 125.227 97.0126 125.992C106.741 134.922 113.692 124.972 114.804 115.787C116.193 105.836 114.245 93.0808 105.628 85.9373C100.642 81.9188 94.2224 80.1935 87.7833 80.381L87.7822 80.3795ZM226.999 98.2146C213.76 98.3103 200.417 100.479 188.186 103.796C161.502 110.94 141.207 123.697 123.695 143.343C112.299 156.1 102.573 169.878 89.5084 181.36C77.5558 192.076 63.9321 200.238 51.4242 209.933C49.7564 211.464 51.1495 218.352 51.9834 217.842C61.9902 211.208 73.1055 205.851 83.3908 199.728C93.9535 193.604 101.737 184.672 109.798 175.997C125.642 158.902 142.044 142.066 164.56 131.86C198.749 116.551 252.95 108.129 283.248 134.919C299.092 148.952 306.596 169.874 308.542 189.52C310.488 211.718 302.706 231.364 294.367 252.031C276.021 296.171 257.956 339.29 260.18 387.257C261.848 421.957 269.626 456.146 273.796 490.846C277.965 525.545 278.244 565.093 251.282 592.904C237.939 606.681 218.76 615.355 199.858 619.949C182.346 624.286 158.997 628.624 141.207 623.776C92.0072 610.253 97.8445 553.611 95.6208 516.615C92.8411 467.883 75.8885 419.155 50.3151 376.546C36.1388 352.818 17.5151 330.873 8.89817 304.593C-0.83064 274.486 15.2914 247.441 18.627 217.844C18.627 216.823 17.7898 208.405 16.678 212.487C13.6203 224.989 7.22711 236.213 4.16949 248.715C1.11186 260.196 0 271.936 0 283.672C0.277966 305.359 6.11525 325.771 16.678 345.162C29.4644 368.89 47.2542 389.812 59.7627 413.796C73.661 440.331 83.9457 468.652 88.9491 497.993C96.1762 538.051 85.6135 585.253 109.797 621.738C134.258 658.734 189.573 662.561 226.264 639.598C302.983 591.631 280.748 494.166 270.186 422.981C267.128 402.314 264.069 381.137 267.683 360.215C272.964 330.364 286.587 302.043 297.706 273.722C313.272 234.429 320.217 193.096 305.762 152.273C298.813 132.627 286.028 114.001 265.179 105.071C253.366 100.096 240.235 98.1184 226.998 98.2141L226.999 98.2146ZM49.7564 132.116C30.2988 132.371 19.1801 156.353 15.0106 170.642C13.3429 176.766 11.9541 183.909 13.3439 190.032C15.0117 196.921 19.1801 197.179 26.1293 195.649C26.9632 195.649 26.6842 192.588 26.4062 192.843C8.61635 193.864 18.0683 175.745 23.3496 168.091C29.1869 159.926 36.692 149.468 48.3666 148.447C53.092 147.937 58.0964 149.209 61.988 151.761C63.8976 153.124 66.6067 158.627 68.4052 161.393C68.3101 161.53 68.2144 161.66 68.101 161.712C66.7112 162.733 65.5994 164.011 63.9316 165.031C58.3722 168.603 52.535 168.859 45.8638 169.88C44.196 170.135 44.7519 177.531 45.8638 178.297C51.7011 182.634 62.544 188.247 68.9372 182.124C74.2186 177.021 74.4976 168.345 74.2196 161.967C73.9416 148.444 67.2683 131.862 49.7565 132.117L49.7564 132.116Z" fill="#704805"/>
</svg>
