<svg width="321" height="657" viewBox="0 0 321 657" fill="none" xmlns="http://www.w3.org/2000/svg">
<path d="M91.5597 20.6606C105.141 31.7104 103.249 53.1859 106.283 67.1813C95.9623 58.1612 81.1948 53.221 67.4069 58.3036C60.2635 61.5916 43.9607 63.5331 46.0655 74.0162C51.1667 83.3176 61.4557 90.2423 72.6135 88.4841C65.4589 93.0297 50.8674 90.1118 54.171 100.713C43.0446 101.623 33.3728 95.0842 23.9422 90.2554C31.0187 105.225 28.8403 140.886 32.4349 155.396C52.4696 146.483 107.522 123.426 130.129 124.741C113.93 105.175 112.997 79.8766 117.532 60.8674C122.914 43.3667 115.929 19.7771 95.3872 16.2613C87.2873 16.1559 80.1914 10.6775 91.5597 20.6601V20.6606ZM171.311 24.5648C169.971 30.8153 170.648 38.7997 169.226 44.1446C156.232 37.192 139.067 44.3428 133.905 57.6443C134.452 49.835 135.722 41.9068 133.069 34.2723C117.975 58.1555 133.125 85.4092 143.39 107.852C149.988 121.214 134.124 129.514 148.136 136.655C177.044 163.681 219.437 207.746 259.5 221.221C261.849 222.535 278.894 227.09 269.576 226.07C222.097 213.193 193.683 166.575 146.148 153.71C167.989 196.459 218.397 212.292 251.075 244.758C256.694 250.756 238.306 239.917 234.613 239.4C204.621 229.259 185.133 203.106 159.09 187.321C142.822 185.323 126.574 182.727 110.19 181.609C79.3779 182.429 48.9239 194.793 25.0411 213.464C16.7933 222.954 34.1886 231.693 38.1368 239.441C58.0384 257.435 66.3059 282.925 68.2156 308.533C76.1462 361.514 81.536 414.543 79.521 468.194C76.9815 509.897 102.557 553.55 144.837 565.353C170.013 574.633 201.376 567.32 215.218 543.507C239.379 508.305 235.062 459.973 255.746 425.253C254.197 448.568 262.565 430.461 265.904 419.003C254.554 416.019 262.314 401.814 262.109 394.142C264.832 369.276 300.371 359.617 295.681 332.765C294.041 316.673 294.136 295.866 278.065 286.65C300.019 287.941 297.91 314.57 299.171 329.946C301.014 338.012 297.309 349.045 302.457 355.697C310.505 354.614 309.893 341.449 313.609 335.4C322.804 310.164 318.655 280.328 298.57 261.144C296.842 248.501 308.493 237.485 309.661 224.714C295.915 224.642 300.91 204.304 307.669 198.304C318.686 185.11 305.684 166.487 292.984 159.485C287.966 155.637 278.656 157.223 283 164.538C286.275 170.927 275.183 180.219 278.026 169.23C279.784 162.697 282.764 155.839 273.336 158.209C269.04 157.622 264.534 165.465 264.079 165.033C263.484 153.675 274.212 149.84 282.37 146.235C284.67 132.774 277.166 118.152 269.02 107.316C261.698 98.139 250.657 92.1582 238.855 90.7891C241.591 98.4184 245.118 110.893 237.986 116.401C229.599 118.098 235.785 126.666 241.998 126.262C250.231 127.426 249.87 135.805 245.853 138.757C234.421 135.548 221.871 139.34 210.943 137.331C201.253 121.192 200.133 93.7518 220.498 84.6094C228.028 80.2191 239.405 80.8923 235.151 69.8969C234.755 60.8796 230.272 51.6955 221.399 48.025C218.768 54.2778 223.898 68.0982 212.333 63.6313C198.079 61.8402 177.635 64.1383 172.175 77.8119C174.288 85.5141 183.476 91.9884 185.819 97.7584C179.74 98.564 175.467 100.211 174.124 91.9552C166.204 73.262 166.66 45.538 189.304 37.12C186.255 29.5218 179.661 23.6415 171.839 20.95L171.442 23.6455L171.307 24.567L171.311 24.5648ZM35.2159 36.235C16.4052 49.8691 12.9353 86.3969 38.6674 94.2048C42.2354 91.9859 35.2565 79.0778 35.8022 72.0632C32.5394 59.405 38.9509 47.418 39.6347 35.2922C40.8869 28.7338 36.7428 35.7842 35.2157 36.2347L35.2159 36.235ZM136.287 74.6346C138.522 76.933 144.563 80.1457 138.524 78.8847C137.441 77.6894 136.73 76.0312 136.287 74.6346ZM278.322 177.979C280.515 183.157 288.515 194.079 286.308 196.351C281.934 191.559 278.562 182.861 278.322 177.979ZM270.065 184.01C273.719 190.337 275.295 193.307 270.624 185.25C270.111 184.465 266.787 177.654 270.065 184.01ZM31.6644 278.814C55.0286 348.339 74.4323 421.707 60.2504 495.093C54.1349 523.806 50.2372 556.764 70.9807 581.247C100.857 619.38 156.975 640.404 203.993 622.762C227.367 613.344 237.805 588.573 239.331 565.321C240.651 551.676 243.794 537.665 240.818 524.125C227.518 552.35 222.859 590.793 190.426 605.335C144.92 621.048 96.6291 584.369 84.8544 541.799C65.4605 480.994 81.5358 415.906 68.5131 353.731C66.0477 326.323 62.2419 295.489 38.1259 277.515C30.9319 272.978 25.7669 263.803 31.6654 278.813L31.6644 278.814Z" fill="#FCE2B7"/>
<path d="M78.4397 15.7313C71.2354 15.9601 63.8954 18.1302 57.6411 20.5133C31.5124 30.8621 28.7327 61.0943 35.4039 85.3323C37.3496 92.6854 40.4095 99.2215 48.7485 97.5875C58.4773 95.6811 69.04 94.0428 77.9349 89.1407C78.2129 88.8684 77.936 85.3323 77.658 85.3323C70.4309 86.4217 62.3666 86.6908 56.2513 82.061C52.2219 79.0607 50.1522 74.8697 48.1511 70.6038C48.3463 70.4232 48.5389 70.2368 48.7483 70.0772C55.1415 64.6304 63.7551 61.6369 71.8162 60.0029C83.7687 57.2795 93.2228 59.1859 101.561 68.173C103.785 67.0836 104.619 67.6272 104.341 69.8059C104.619 71.1676 104.895 72.8006 104.895 74.1623C105.173 77.4303 105.175 80.974 105.731 84.242C106.287 89.9611 107.118 95.6769 107.674 101.396C107.952 103.575 108.786 103.302 109.064 101.396C111.844 81.7877 109.622 62.7295 105.731 44.4829C103.507 33.3171 102.949 22.9661 90.9964 17.7917C87.0354 16.1576 82.7617 15.596 78.439 15.7332L78.4397 15.7313ZM160.451 15.9601C155.567 15.843 150.831 16.7366 146.314 19.9705C139.087 25.1449 134.915 33.3107 132.969 41.4808C131.023 50.1956 130.194 59.7274 131.862 68.7146C132.696 73.3443 134.916 83.4208 141.031 83.6931H141.308C143.254 80.6974 145.201 77.9784 146.59 74.438C146.59 73.8933 146.315 71.4412 146.037 71.9859C141.311 82.0624 134.361 68.4444 135.195 62.7253C135.473 58.9126 138.806 54.284 141.308 51.5606C148.257 43.3905 160.214 41.2118 169.388 47.4755C173.002 50.1989 173.275 35.7628 173.275 34.4012C173.275 32.2225 173.835 17.7875 169.388 16.9705C166.365 16.4598 163.382 16.0301 160.452 15.9599L160.451 15.9601ZM200.87 47.1345C189.092 47.2277 177.514 50.8419 172.998 61.9056C169.94 69.531 169.944 80.1566 172.168 88.0543C174.113 95.1351 180.505 103.846 189.122 100.033C190.234 99.7605 189.955 96.2212 189.399 95.6765C184.396 90.5021 178.279 85.8746 175.778 78.7938C174.666 75.5257 175.779 76.0704 178.281 73.347C180.782 70.896 183.839 69.2609 186.896 68.1715C197.737 64.3588 210.248 65.1769 221.089 67.9003C221.083 67.799 221.078 67.6933 221.072 67.5918C222.09 67.8752 223.032 60.2523 223.032 60.0015C223.032 58.3674 223.313 50.7442 220.812 49.9272C215.079 48.2931 207.938 47.0788 200.871 47.1346L200.87 47.1345ZM239.921 87.7128C239.782 87.6448 239.573 88.4607 237.766 88.3245C235.542 88.0522 232.764 88.8671 230.54 88.8671C223.035 89.4118 209.967 88.0532 204.964 94.8618C199.682 102.215 201.353 116.372 202.743 124.541C203.577 129.988 205.52 138.979 211.913 141.158C214.692 142.247 217.195 140.883 219.975 140.61C223.588 140.066 226.926 140.064 230.54 139.52C235.826 138.484 240.952 137.769 246.284 137.243C246.671 137.212 247.059 137.188 247.446 137.142C248.749 137.021 250.052 136.897 251.387 136.796C251.365 136.566 251.362 136.341 251.344 136.11C252.355 134.435 251.805 128.291 250.828 127.812C245.941 124.62 240.121 122.468 234.422 120.302C236.788 119.902 239.128 119.453 241.377 118.823C244.434 117.734 244.439 109.566 244.439 107.387C244.161 113.106 244.992 104.937 244.992 103.031C244.992 100.852 244.99 98.9425 244.156 97.0362C243.6 95.1298 244.439 99.217 241.659 92.4086C240.13 88.7321 240.061 87.78 239.922 87.7119L239.921 87.7128ZM208.216 101.372C208.95 101.112 212.778 104.813 214.878 109.877C214.263 109.333 213.649 108.811 213.027 108.202C211.915 107.112 210.804 106.025 209.97 104.936C208.25 102.587 207.856 101.5 208.216 101.372L208.216 101.372ZM109.066 138.435C86.5507 138.162 65.4281 147.145 45.6926 157.222C30.1265 165.119 15.6722 173.838 10.9468 191.541C6.49936 208.971 7.33209 230.486 14.0033 247.643C20.3965 264.256 33.1807 275.421 45.1327 288.221C57.0852 301.021 61.2559 314.91 62.9237 331.795C65.1474 353.31 69.04 374.822 70.9858 396.609C72.9315 416.762 71.8175 436.643 71.5395 456.796C71.2616 489.476 73.4853 524.613 86.8276 555.115C99.3361 583.71 122.963 603.043 153.539 610.397C176.333 615.843 197.739 610.127 212.749 591.881C229.983 570.639 236.933 541.771 243.047 515.899C246.105 502.009 249.439 488.12 251.663 473.959C254.165 458.98 254.165 443.999 258.612 429.565C259.168 427.386 257.778 416.222 257.222 417.039C235.541 447.813 237.206 487.849 223.308 522.436C216.081 540.138 204.411 558.651 184.676 564.37C159.659 571.724 128.799 559.745 110.732 542.86C92.1079 525.703 83.7722 501.19 82.1039 476.679C81.27 461.701 82.6577 446.722 82.6577 431.744C82.9356 409.684 80.9899 387.628 78.4882 365.841C76.2644 347.866 73.7627 329.889 71.539 311.915C69.8712 295.847 67.6464 279.504 60.6973 264.798C53.7481 249.82 42.0746 240.292 31.2329 228.31C30.482 227.445 29.7836 226.537 29.1047 225.614C29.1761 224.746 29.0672 223.677 28.7301 223.677H27.7366C26.5563 221.934 25.4392 220.152 24.3271 218.369C26.0697 216.402 27.7238 214.261 29.5662 212.784C47.356 199.439 73.4875 189.092 95.7248 185.278C106.843 183.371 117.681 183.646 128.522 186.097C132.969 187.186 137.695 188.82 142.42 188.82C146.59 188.82 149.929 187.455 154.098 188.272C163.549 190.179 171.884 199.44 178.833 205.432C186.616 212.513 194.401 219.595 203.296 225.586C210.801 230.76 218.862 235.118 226.923 239.203C236.652 244.105 247.494 246.553 257.221 252.272C258.611 252.544 258.886 248.461 258.052 247.644C243.32 232.121 228.037 220.681 209.691 210.059C191.624 199.71 175.502 186.368 161.325 171.39C153.264 162.947 147.982 151.233 137.975 144.97C129.636 139.795 118.794 138.438 109.067 138.438L109.066 138.435ZM282.517 158.583C278.625 158.039 276.401 162.673 275.568 165.668C274.178 171.387 274.736 178.195 276.404 183.642C278.071 189.361 282.795 200.251 289.466 202.157C290.559 202.425 290.041 194.335 289.759 193.29C289.6 192.856 289.43 192.437 289.189 192.083C288.355 189.904 286.962 188.272 285.85 186.093C284.034 182.931 282.656 179.485 280.975 176.269C282.712 175.721 284.079 174.904 285.019 173.29C286.687 170.295 286.964 159.4 282.517 158.583V158.583ZM289.759 193.29C289.967 193.858 290.145 194.46 290.302 195.077C290.858 196.983 292.522 198.892 289.743 193.173C289.748 193.186 289.754 193.273 289.759 193.29L289.759 193.29ZM278.711 177.838C278.671 178.114 278.566 178.266 278.347 178.194L278.711 177.838ZM280.345 284.178C278.859 284.112 277.27 284.186 275.568 284.406C275.012 284.679 275.287 289.581 276.121 289.853C288.63 293.938 290.58 309.458 291.692 320.625C292.248 327.161 294.467 335.878 292.799 343.231C290.854 353.58 280.293 362.023 272.788 368.832C261.947 378.908 259.446 389.802 257.5 404.235C257.222 407.231 256.112 417.58 259.726 419.214C267.231 422.754 265.562 422.481 271.121 418.124C273.901 415.945 276.682 412.947 279.183 410.496C285.299 404.777 290.858 399.062 294.472 391.709C303.366 374.007 303.085 353.576 302.251 334.24C301.469 316.879 302.641 285.157 280.345 284.177L280.345 284.178Z" fill="#FAD28F"/>
<path d="M87.5291 0.00110122C80.9383 -0.04378 73.9402 1.34151 67.0781 3.8947C39.8374 13.9712 18.712 34.6661 18.4341 64.3509C18.1561 86.9549 30.9414 105.474 56.2374 102.75C57.0713 102.75 56.7944 96.7613 55.9606 96.7613C47.3436 95.3996 38.7288 93.7666 31.7797 88.3199C19.8272 78.788 20.104 60.5414 27.8871 48.5586C38.1718 33.0354 57.0735 22.9567 75.4193 19.1434C89.3176 16.1477 104.33 17.7807 112.391 30.3082C121.008 43.925 114.614 59.4483 112.668 73.8822C112.668 74.4268 112.668 82.8682 114.058 82.3235C121.285 80.1448 121.842 62.4429 122.12 56.4515C122.954 45.558 122.398 34.3921 119.341 23.771C114.563 7.10746 102.032 0.0985862 87.533 0L87.5291 0.00110122ZM161.765 7.86266C156.167 8.08262 150.153 9.97753 144.072 13.969C119.611 29.7646 117.948 75.2477 138.795 95.1283C139.073 95.4006 139.628 91.0411 139.072 90.2241C124.618 67.62 122.393 33.0332 153.248 23.5014C167.421 19.093 181.228 24.6809 186.42 36.932C183.82 37.8702 181.421 39.0107 179.379 40.3893C158.253 54.8232 166.591 96.2157 183.825 110.377C184.381 110.922 184.658 107.109 184.102 106.292C172.983 89.6797 159.086 59.4502 186.604 50.7354C187.493 50.4546 188.404 50.231 189.319 50.0173C189.53 50.5472 189.747 50.8473 189.938 50.193C189.972 50.0756 189.992 49.959 190.025 49.8419C197.8 48.1783 206.384 48.7711 214.124 50.193C218.849 51.01 225.796 52.3695 228.576 56.1822C232.787 61.7638 232.624 70.2967 233.12 77.5011C228.172 78.2575 223.104 79.9745 218.017 82.8735C204.674 90.4989 198.837 105.476 204.118 119.911C207.176 128.626 214.401 132.441 222.74 135.709C226.909 137.343 231.359 139.247 236.084 140.337C237.601 140.761 243.961 140.856 246.98 141.135C247.032 141.506 247.111 141.789 247.203 141.698C247.481 141.698 248.033 141.427 248.311 141.427C248.333 141.416 248.35 141.382 248.37 141.363C248.432 141.385 248.568 141.403 248.593 141.427V140.741C248.634 140.413 248.627 140.045 248.593 139.667V138.432C248.533 138.491 248.434 138.511 248.354 138.55C248.34 138.522 248.326 138.447 248.311 138.432C244.697 131.896 232.468 129.716 225.797 126.72C218.014 123.179 209.677 120.457 208.565 111.47C207.453 101.938 216.625 97.3051 225.52 94.5818C254.428 86.1393 278.331 114.192 280.276 140.337C280.276 140.882 281.391 146.603 282.225 143.88C293.332 113.048 268.604 75.8308 237.398 77.0999C238.34 65.123 238.995 48.0251 229.135 40.6639C220.095 34.021 204.076 32.4477 191.279 35.4832C189.548 19.4684 177.256 7.25813 161.767 7.86544L161.765 7.86266ZM105.422 117.165C80.0066 116.818 54.6541 124.728 35.1103 141.426C1.19848 170.293 -7.69919 210.869 6.47707 252.264C15.094 277.319 30.3854 298.834 37.612 324.434C45.1171 350.578 53.4527 376.998 57.9002 403.959C65.9612 455.431 45.6697 504.718 50.951 556.19C55.3985 599.22 82.086 635.168 124.059 649.874C161.028 662.946 209.948 656.41 228.849 618.555C244.415 586.964 242.196 548.567 245.81 514.525C248.867 486.747 253.315 458.424 265.267 432.824C276.664 408.586 295.843 388.978 307.24 364.467C316.691 344.042 321.692 321.98 320.302 299.648C319.19 281.402 315.023 260.162 296.121 252.809C295.288 252.537 294.732 262.065 296.121 263.155C336.426 299.648 307.519 354.39 280.556 390.339C257.207 421.385 248.588 457.879 243.862 495.461C241.638 513.435 240.247 531.682 238.58 549.656C237.19 564.907 235.803 581.245 229.41 595.406C214.122 628.359 170.481 631.627 138.793 622.912C100.99 612.291 58.1804 580.978 57.6245 538.766C57.3465 518.613 62.6312 498.732 65.1329 478.851C68.1905 456.52 68.186 433.913 66.2403 411.581C64.2946 388.433 59.5703 365.556 53.4551 343.224C47.8958 323.072 42.8912 302.646 35.6641 283.038C27.6031 261.796 9.81555 241.368 7.31441 218.491C5.36865 200.245 23.7166 176.554 37.3375 165.933C55.9612 151.771 78.4764 149.589 101.27 149.045C126.009 148.5 147.968 153.951 169.371 165.662C205.229 185.27 232.189 222.035 274.44 229.661C274.996 230.75 275.83 223.668 274.163 223.124C249.702 217.949 228.857 203.513 212.457 185.538C196.613 168.109 182.709 144.688 162.14 132.705C144.992 122.696 125.19 117.433 105.424 117.163L105.422 117.165ZM284.162 145.219C275.775 145.361 266.937 148.284 263.879 155.586C254.428 177.1 278.609 198.345 286.67 216.047C287.226 217.137 287.224 214.41 287.224 214.138C286.39 204.878 280.276 196.983 275.829 189.085C272.771 183.638 267.766 176.556 266.377 170.292C264.987 163.212 270.828 160.758 277.778 159.941C297.791 157.218 305.015 171.926 310.575 187.995C310.631 188.188 310.625 188.421 310.656 188.639C310.528 188.931 310.394 189.262 310.298 189.357C308.352 191.808 307.238 194.804 305.292 197.255C301.123 202.43 298.065 207.878 298.343 214.686C298.343 217.954 299.734 225.576 303.626 226.393C308.907 227.483 312.801 220.132 314.191 216.319C319.75 202.43 318.914 183.366 314.744 168.932C311.687 158.584 305.296 149.871 294.733 146.603C291.693 145.667 287.975 145.155 284.163 145.22L284.162 145.219Z" fill="#704805"/>
</svg>
